<svg xmlns="http://www.w3.org/2000/svg" xmlns:xlink="http://www.w3.org/1999/xlink" width="96.534" height="96.822" viewBox="0 0 96.534 96.822">
  <defs>
    <linearGradient id="linear-gradient" x1="1.094" y1="-0.493" x2="0.224" y2="0.738" gradientUnits="objectBoundingBox">
      <stop offset="0" stop-color="#103eaa"/>
      <stop offset="0.216" stop-color="#103eaa"/>
      <stop offset="0.779" stop-color="#103eaa"/>
      <stop offset="1"/>
    </linearGradient>
  </defs>
  <g id="Group_3" data-name="Group 3" transform="translate(-12788 216.923)">
    <path id="Path_39" data-name="Path 39" d="M59.308,28.664a18.753,18.753,0,0,1-7.755,6.87A19.234,19.234,0,0,1,46.5,37.165a20.323,20.323,0,0,1-3.369.157,7.2,7.2,0,0,0-2.117.2,1.009,1.009,0,0,0-.623.445.825.825,0,0,0-.019.631,1.8,1.8,0,0,0,.384.664c-.14-.135-.354-.342-.612-.6l-.322-.326-1.559-1.581-1.5-1.514-1.752-1.78-1.871-1.911-1.871-1.907-1.739-1.767-1.463-1.49-1.063-1.08-.524-.533-.032-.034L20.709,18.9l4.821,4.849.949.956.073.069a.853.853,0,0,0,.61.256H42.975a6.175,6.175,0,0,0,.706.039h.064a4.768,4.768,0,0,1,.67-.039,6.25,6.25,0,0,0,5.365-6.046A6.284,6.284,0,0,0,43.562,12.9H16.685a.816.816,0,0,0-.73,1.179L3.87,1.79a.088.088,0,0,0-.021-.015A6.279,6.279,0,0,0,0,.149C.374.14.749.14,1.106.14H2.259l.017.017H33.217c5.135,0,10.815-.709,15.783.876a19.036,19.036,0,0,1,10.557,8.3,19.045,19.045,0,0,1-.249,19.333Z" transform="translate(12814.017 -216.921)" fill="url(#linear-gradient)"/>
    <path id="Path_40" data-name="Path 40" d="M95.979,80.516a21.264,21.264,0,0,1-19.9,16.3,20.605,20.605,0,0,1-6.734-.943,20.91,20.91,0,0,1-6.719-3.563,53.2,53.2,0,0,1-4.847-4.886c-1.635-1.694-3.295-3.354-4.959-5.031-3.384-3.373-6.771-6.747-10-10.283a1.7,1.7,0,0,0-.519-.4.889.889,0,0,0-1.131.463,1.687,1.687,0,0,0-.1.589,44.761,44.761,0,0,1-.319,7.594A20.544,20.544,0,0,1,2.491,85.894,21.6,21.6,0,0,1,.246,79.231a63.113,63.113,0,0,1-.081-9.944C.19,55.6.246,41.9.246,28.2A13.806,13.806,0,0,1,.74,23.769a6.861,6.861,0,0,1,4.728-4.383,6.636,6.636,0,0,1,6.19,1.7c3.38,3.373,2.364,9.141,2.316,13.438-.062,5.351-.133,10.7-.133,16.056q-.056,10.294-.023,20.587c0,2.849-.552,6.125,1.023,8.646a6.866,6.866,0,0,0,12.69-3.727V54.017a6.919,6.919,0,0,1,6.315-6.982,6.7,6.7,0,0,1,4.711,1.5l.037-.042q5.342,5.4,10.689,10.786,5.415,5.45,10.83,10.929c3.243,3.272,6.34,6.728,9.676,9.9a8.942,8.942,0,0,0,6.423,2.966A6.839,6.839,0,0,0,81.6,79.294c2.728-5.318-3.016-9.6-6.307-12.941-3.909-3.966-7.946-7.8-11.807-11.809C57.859,48.7,52.069,43,46.364,37.238Q34.566,25.3,22.775,13.4a14.057,14.057,0,0,1-2.581-3.178A7.081,7.081,0,0,1,19.847,4.4,6.879,6.879,0,0,1,24.064.419c.115-.038.227-.071.342-.1A7.027,7.027,0,0,1,26.528,0c.144,0,.285,0,.417.01a6.976,6.976,0,0,1,4.532,2.054L44.7,15.588a.9.9,0,0,0,.171.235L49.992,21l.156.159.448.457.7.721.931.952,1.125,1.151,1.285,1.314L56.055,27.2l1.512,1.545,1.575,1.612L60.75,32l1.606,1.643,1.575,1.61,1.508,1.543,1.41,1.442,1.281,1.31,1.118,1.144c.464.476.929.95,1.389,1.43.866.9,1.762,1.767,2.658,2.637s1.818,1.773,2.728,2.658,1.827,1.765,2.753,2.635l.015.013c2.493,2.341,5.092,4.647,7.542,6.953a52.133,52.133,0,0,1,6.286,6.867,19.774,19.774,0,0,1,1.356,2.1l.019.019a20.117,20.117,0,0,1,1.987,14.521Z" transform="translate(12787.993 -216.923)" fill="#103eaa"/>
  </g>
</svg>
